<?xml version="1.0" standalone="no"?>
<!DOCTYPE svg PUBLIC "-//W3C//DTD SVG 20010904//EN"
 "http://www.w3.org/TR/2001/REC-SVG-20010904/DTD/svg10.dtd">
<svg version="1.0" xmlns="http://www.w3.org/2000/svg"
 width="121.000000pt" height="121.000000pt" viewBox="0 0 121.000000 121.000000"
 preserveAspectRatio="xMidYMid meet">
<metadata>
Created by potrace 1.14, written by Peter Selinger 2001-2017
</metadata>
<g transform="translate(0.000000,121.000000) scale(0.100000,-0.100000)"
fill="#000000" stroke="none">
<path d="M593 1203 c9 -2 25 -2 35 0 9 3 1 5 -18 5 -19 0 -27 -2 -17 -5z"/>
<path d="M446 1185 c-101 -28 -178 -75 -261 -159 -133 -134 -181 -260 -172
-451 6 -134 29 -206 99 -311 166 -248 492 -333 763 -199 91 46 181 126 234
210 46 73 92 197 90 247 -1 26 -3 22 -10 -19 -44 -262 -275 -470 -545 -490
-274 -20 -538 172 -609 443 -19 74 -19 222 0 294 61 229 258 406 489 440 48 7
49 8 11 8 -22 0 -62 -6 -89 -13z"/>
<path d="M694 1189 c134 -22 233 -74 331 -173 81 -82 135 -180 159 -291 15
-66 16 -67 11 -17 -17 166 -145 341 -316 432 -62 33 -158 61 -204 59 -22 -1
-16 -4 19 -10z"/>
<path d="M577 1134 c-13 -14 -7 -65 9 -71 17 -6 42 13 30 24 -4 4 -11 1 -16
-7 -8 -12 -10 -12 -16 3 -3 9 -3 24 0 33 5 14 9 14 23 3 14 -12 16 -12 11 1
-5 17 -30 25 -41 14z"/>
<path d="M512 1098 c2 -26 8 -34 26 -36 21 -3 23 0 20 30 -2 26 -8 34 -26 36
-21 3 -23 0 -20 -30z m36 -7 c3 -16 -1 -22 -10 -19 -7 3 -15 15 -16 27 -3 16
1 22 10 19 7 -3 15 -15 16 -27z"/>
<path d="M631 1093 c0 -28 2 -33 8 -18 7 18 8 18 18 1 7 -13 16 -17 28 -12 10
3 24 1 31 -5 11 -9 14 -5 14 24 0 47 -15 55 -35 17 -19 -37 -27 -38 -23 -2 2
21 -2 28 -19 30 -21 3 -23 -1 -22 -35z m29 17 c0 -5 -5 -10 -11 -10 -5 0 -7 5
-4 10 3 6 8 10 11 10 2 0 4 -4 4 -10z"/>
<path d="M469 1093 c0 -28 -1 -28 -11 -5 -17 34 -31 27 -24 -13 6 -31 5 -35
-15 -35 -18 0 -19 2 -9 15 11 13 10 14 -4 9 -9 -3 -16 -2 -16 4 0 6 5 12 12
14 7 3 8 9 3 18 -6 10 -11 9 -21 -5 -11 -15 -11 -23 2 -46 17 -33 15 -33 48
-18 14 7 22 17 19 23 -4 6 1 5 10 -3 15 -12 17 -11 18 10 1 17 3 19 6 7 2 -10
9 -18 14 -18 11 0 11 0 -2 39 -14 38 -29 40 -30 4z"/>
<path d="M752 1101 c1 -9 -2 -26 -6 -38 -11 -35 4 -27 16 8 6 18 14 27 20 21
5 -5 5 -19 -1 -35 -10 -26 2 -40 12 -14 4 8 6 7 6 -3 2 -30 23 -41 43 -23 36
33 9 83 -29 52 -14 -12 -15 -11 -8 10 5 16 4 21 -4 17 -6 -4 -11 -3 -11 2 0 5
-9 12 -19 15 -14 3 -19 0 -19 -12z m98 -38 c0 -13 -14 -28 -28 -31 -10 -2 -10
2 -2 18 10 19 30 28 30 13z"/>
<path d="M338 1063 c-23 -6 -23 -25 1 -54 16 -20 21 -21 35 -10 9 7 16 17 16
21 0 17 -36 47 -52 43z m30 -37 c3 -12 -1 -17 -10 -14 -7 3 -15 13 -16 22 -3
12 1 17 10 14 7 -3 15 -13 16 -22z"/>
<path d="M866 1035 c-31 -47 6 -79 38 -33 23 32 19 48 -4 18 -22 -29 -37 -22
-20 10 17 32 6 35 -14 5z"/>
<path d="M270 1015 c-9 -11 -8 -19 7 -39 21 -30 26 -31 43 -11 11 13 10 14 -5
8 -15 -5 -17 -3 -12 11 6 14 3 17 -9 12 -12 -4 -14 -1 -9 14 7 24 2 26 -15 5z"/>
<path d="M911 994 c-16 -21 -18 -30 -10 -40 6 -8 16 -14 22 -14 7 0 7 4 -1 12
-17 17 -15 31 2 25 11 -4 13 -1 9 10 -5 12 -1 14 15 8 27 -8 29 1 3 15 -16 8
-23 5 -40 -16z"/>
<path d="M240 986 c0 -5 7 -18 17 -28 22 -25 8 -36 -17 -13 -11 10 -23 16 -26
13 -3 -3 7 -15 22 -27 25 -20 29 -20 43 -6 14 14 13 18 -12 42 -15 15 -27 24
-27 19z"/>
<path d="M960 945 c-29 -30 -16 -51 25 -41 21 5 26 12 23 33 -4 36 -19 38 -48
8z m40 -4 c0 -13 -29 -35 -37 -28 -7 8 15 37 28 37 5 0 9 -4 9 -9z"/>
<path d="M187 933 c-28 -27 23 -75 59 -55 16 9 15 12 -9 36 -27 27 -39 31 -50
19z m34 -28 c-1 -15 -24 -12 -29 3 -3 9 2 13 12 10 10 -1 17 -7 17 -13z"/>
<path d="M1001 901 c-16 -12 -22 -24 -18 -35 8 -19 35 -20 60 -2 26 20 20 30
-8 12 -13 -9 -27 -16 -30 -16 -13 0 -3 24 18 41 29 24 9 24 -22 0z"/>
<path d="M160 882 c0 -5 12 -14 26 -21 21 -9 24 -14 14 -26 -11 -13 -15 -13
-33 0 -31 21 -46 18 -20 -4 12 -10 19 -21 16 -25 -3 -3 -12 -1 -19 5 -7 6 -18
8 -24 4 -18 -11 -10 -35 16 -45 36 -14 44 -13 44 10 0 11 9 29 20 40 27 27 25
37 -10 55 -16 9 -30 12 -30 7z m10 -102 c0 -5 -2 -10 -4 -10 -3 0 -8 5 -11 10
-3 6 -1 10 4 10 6 0 11 -4 11 -10z"/>
<path d="M767 851 c-34 -38 -38 -47 -35 -89 1 -36 -9 -74 -42 -159 l-43 -113
-74 0 c-46 0 -72 4 -68 10 3 5 -3 17 -14 27 -11 9 -17 21 -14 26 3 6 2 7 -4 4
-24 -15 -102 109 -103 164 0 37 -26 57 -47 37 -13 -14 -14 -23 -3 -70 18 -78
58 -145 111 -186 26 -21 49 -46 51 -57 3 -18 12 -20 108 -23 126 -3 150 1 143
26 -3 12 4 24 20 35 85 56 164 197 110 197 -15 0 -16 -2 -3 -10 8 -5 12 -11 9
-14 -10 -11 -29 11 -23 27 3 9 10 14 15 11 5 -3 9 1 9 8 0 10 2 10 9 0 6 -10
10 -7 13 13 5 25 -12 55 -32 55 -5 0 -14 -19 -20 -42 -23 -90 -32 -107 -93
-176 -34 -39 -63 -70 -64 -68 -2 2 15 54 37 116 27 75 48 119 65 132 29 22 40
73 28 124 l-8 37 -38 -42z m-407 -157 c0 -2 -7 -4 -15 -4 -8 0 -15 4 -15 10 0
5 7 7 15 4 8 -4 15 -8 15 -10z m7 -29 c0 -8 -6 -15 -14 -15 -14 0 -17 12 -6
23 11 11 20 8 20 -8z m491 -26 c-2 -6 -8 -10 -13 -10 -5 0 -11 4 -13 10 -2 6
4 11 13 11 9 0 15 -5 13 -11z m-478 -8 c0 -4 18 -29 40 -54 40 -45 51 -72 28
-65 -7 3 -13 11 -14 19 -2 30 -5 33 -14 19 -8 -13 -10 -12 -10 3 0 11 -4 15
-12 11 -8 -5 -9 -2 -5 9 4 11 1 17 -8 17 -9 0 -12 6 -8 15 3 10 1 15 -7 13 -7
-2 -15 3 -17 10 -3 6 2 12 11 12 9 0 16 -4 16 -9z m460 -32 c0 -5 -7 -9 -15
-9 -15 0 -20 12 -9 23 8 8 24 -1 24 -14z m-10 -23 c0 -1 -11 -15 -24 -29 -17
-19 -27 -22 -35 -14 -8 8 -11 5 -11 -13 0 -20 -2 -22 -10 -10 -11 18 17 53 38
45 10 -3 12 0 8 10 -4 10 1 15 14 15 11 0 20 -2 20 -4z m-282 -118 c-6 -18
-28 -21 -28 -4 0 9 7 16 16 16 9 0 14 -5 12 -12z m42 -7 c0 -4 -6 -8 -14 -8
-8 0 -12 6 -9 14 5 13 23 9 23 -6z m30 4 c0 -8 -4 -15 -10 -15 -5 0 -7 7 -4
15 4 8 8 15 10 15 2 0 4 -7 4 -15z m47 0 c0 -8 -6 -15 -14 -15 -7 0 -13 7 -13
15 0 8 6 15 13 15 8 0 14 -7 14 -15z"/>
<path d="M480 845 c-7 -9 -11 -18 -8 -20 3 -3 11 1 18 10 7 9 11 18 8 20 -3 3
-11 -1 -18 -10z"/>
<path d="M1030 825 c-13 -16 -7 -45 10 -45 15 0 12 20 -2 20 -14 1 20 30 35
30 4 0 5 -10 2 -21 -5 -15 -4 -19 4 -15 6 4 11 16 11 27 0 23 -41 27 -60 4z"/>
<path d="M558 779 c-10 -5 -30 -9 -44 -7 -17 2 -28 -2 -31 -12 -4 -12 -3 -12
5 -1 14 20 46 -2 48 -33 0 -14 -2 -26 -5 -26 -3 0 -12 -4 -20 -9 -12 -8 -10
-17 15 -53 38 -56 43 -59 82 -55 24 2 31 0 27 -10 -2 -8 0 -11 5 -8 6 3 10 14
10 24 0 10 10 31 22 46 21 27 33 69 17 59 -8 -5 -35 37 -29 46 7 12 42 31 47
26 4 -3 1 -18 -6 -33 -11 -26 -10 -27 4 -8 23 29 15 51 -18 47 -15 -1 -35 2
-46 7 -15 8 -20 7 -25 -5 -4 -12 -2 -15 9 -10 8 3 15 1 15 -4 0 -6 -7 -10 -15
-10 -8 0 -15 -5 -15 -10 0 -6 11 -8 26 -4 19 5 25 4 20 -5 -4 -6 -18 -11 -31
-11 -12 0 -37 -13 -54 -29 -27 -25 -29 -30 -16 -47 21 -27 18 -40 -4 -20 -22
20 -34 65 -17 67 6 1 17 2 25 3 20 2 26 26 7 26 -9 0 -16 5 -16 11 0 6 9 8 20
4 17 -5 20 -2 20 24 0 33 -5 36 -32 20z m95 -83 c11 -1 22 -6 24 -13 7 -19
-30 -11 -52 10 -11 11 -14 16 -6 12 7 -4 23 -8 34 -9z m17 -46 c0 -3 -8 -14
-17 -25 -15 -19 -15 -19 -9 -1 4 12 1 23 -6 27 -8 5 -5 8 10 6 12 0 22 -4 22
-7z"/>
<path d="M1043 764 c-8 -21 10 -36 38 -32 16 2 25 11 27 26 3 19 -1 22 -28 22
-19 0 -33 -6 -37 -16z m57 -3 c0 -15 -19 -23 -38 -16 -14 5 -14 7 -2 15 19 12
40 13 40 1z"/>
<path d="M100 759 c0 -4 10 -9 22 -11 12 -2 23 -9 26 -17 3 -10 -3 -11 -28 -6
-23 5 -30 4 -26 -4 9 -14 63 -14 71 -1 4 6 2 17 -4 24 -13 16 -61 27 -61 15z"/>
<path d="M1090 722 c-14 -2 -29 -8 -35 -14 -7 -7 -2 -8 15 -3 24 7 24 7 8 -12
-10 -11 -18 -22 -18 -25 0 -9 60 4 67 15 4 6 0 8 -10 4 -22 -8 -22 2 0 18 19
14 7 22 -27 17z"/>
<path d="M83 685 c-7 -20 -5 -21 35 -30 l34 -7 -17 26 c-19 29 -43 34 -52 11z
m27 -5 c0 -5 -5 -10 -11 -10 -5 0 -7 5 -4 10 3 6 8 10 11 10 2 0 4 -4 4 -10z"/>
<path d="M1064 646 c-3 -8 -3 -20 1 -26 8 -13 35 -13 35 1 0 5 -4 7 -10 4 -5
-3 -10 -1 -10 5 0 14 26 24 40 15 8 -5 7 -11 -2 -23 -11 -13 -11 -14 2 -10 8
2 15 13 15 24 0 25 -62 34 -71 10z"/>
<path d="M71 641 c-12 -8 -12 -12 2 -26 23 -22 71 -16 75 10 3 17 1 17 -7 5
-10 -13 -12 -13 -21 0 -6 10 -10 11 -10 3 0 -18 -18 -16 -22 2 -2 10 -8 12
-17 6z"/>
<path d="M1203 605 c0 -27 2 -38 4 -22 2 15 2 37 0 50 -2 12 -4 0 -4 -28z"/>
<path d="M1066 584 c-9 -24 2 -34 35 -34 33 0 51 26 28 41 -22 14 -56 10 -63
-7z m54 -4 c12 -8 12 -10 -3 -16 -9 -3 -25 -3 -34 0 -15 6 -15 8 -3 16 8 6 17
10 20 10 3 0 12 -4 20 -10z"/>
<path d="M80 570 c0 -17 6 -20 38 -19 28 0 32 2 17 8 -19 8 -19 8 0 19 18 10
15 11 -17 12 -31 0 -38 -4 -38 -20z"/>
<path d="M150 430 c0 -5 -7 -10 -16 -10 -13 0 -14 -3 -5 -13 6 -8 9 -16 6 -18
-2 -3 4 -5 15 -5 23 0 32 27 13 44 -7 8 -13 8 -13 2z"/>
<path d="M429 423 c-13 -16 -12 -17 4 -4 9 7 17 15 17 17 0 8 -8 3 -21 -13z"/>
<path d="M1041 421 c-9 -6 -10 -11 -2 -15 6 -4 9 -11 6 -16 -3 -4 3 -7 13 -6
21 1 34 28 18 38 -14 10 -18 10 -35 -1z"/>
<path d="M610 410 l-165 -6 168 -2 c106 -1 167 2 167 8 0 6 -1 9 -2 8 -2 -1
-77 -5 -168 -8z"/>
<path d="M458 323 c6 -2 18 -2 25 0 6 3 1 5 -13 5 -14 0 -19 -2 -12 -5z"/>
<path d="M588 323 c7 -3 16 -2 19 1 4 3 -2 6 -13 5 -11 0 -14 -3 -6 -6z"/>
<path d="M226 294 l-28 -25 33 -34 c19 -19 38 -35 44 -35 5 0 4 5 -3 12 -17
17 -15 31 4 24 12 -5 15 -2 10 10 -5 12 -1 14 17 9 21 -7 21 -6 5 11 -17 17
-18 17 -41 -4 -18 -17 -26 -19 -35 -10 -9 9 -7 17 10 35 30 32 19 37 -16 7z"/>
<path d="M934 295 c-13 -20 -14 -28 -4 -40 11 -13 10 -14 -11 -7 -13 5 -28 5
-34 0 -5 -5 -18 -14 -27 -21 -17 -11 -17 -14 5 -40 15 -20 27 -26 40 -22 25
10 21 24 -5 17 -21 -5 -22 -4 -8 13 14 17 13 18 -2 12 -10 -3 -20 -2 -23 2
-12 21 30 20 52 0 23 -23 33 -14 11 10 -11 10 -8 11 15 6 32 -8 35 4 7 30 -29
27 -13 38 21 15 33 -24 40 -13 9 15 -11 10 -17 22 -14 26 13 22 -17 6 -32 -16z"/>
<path d="M322 218 c-11 -11 -17 -58 -8 -58 2 0 11 -3 19 -6 20 -7 49 50 34 65
-14 14 -30 14 -45 -1z m24 -34 c-22 -21 -31 -12 -16 16 8 15 15 19 22 12 8 -8
6 -16 -6 -28z"/>
<path d="M823 185 c4 -25 4 -25 -14 -9 -11 10 -22 14 -25 11 -9 -8 16 -67 28
-67 5 0 6 4 3 10 -3 6 1 7 9 4 11 -4 16 0 16 12 0 16 2 16 10 4 17 -27 22 -2
5 29 -19 38 -39 41 -32 6z"/>
<path d="M382 188 c-17 -17 -15 -58 4 -65 21 -8 46 24 42 52 -4 23 -28 31 -46
13z m31 -28 c-3 -11 -12 -20 -19 -20 -17 0 -17 5 -3 31 13 24 29 16 22 -11z"/>
<path d="M436 158 c-11 -41 -7 -58 14 -58 21 0 40 28 39 57 0 11 -6 5 -15 -16
-18 -41 -41 -30 -25 12 6 15 7 27 2 27 -5 0 -11 -10 -15 -22z"/>
<path d="M741 171 c-20 -13 -5 -71 19 -71 10 0 22 5 26 12 5 7 2 9 -8 5 -24
-9 -30 4 -10 20 15 13 15 14 0 10 -24 -8 -30 4 -10 19 19 15 5 19 -17 5z"/>
<path d="M501 128 c0 -20 3 -39 9 -43 11 -7 43 51 37 68 -3 7 -10 -1 -17 -18
l-13 -30 -7 30 c-8 30 -8 30 -9 -7z"/>
<path d="M670 134 c0 -16 5 -36 10 -44 8 -13 10 -12 10 4 0 15 3 16 15 6 22
-19 30 -5 18 32 -7 20 -11 26 -12 14 -1 -18 -2 -18 -21 -1 -20 18 -20 17 -20
-11z"/>
<path d="M558 115 c-4 -32 -2 -35 22 -34 16 1 19 3 8 6 -10 2 -18 8 -18 13 0
5 8 11 18 13 16 4 16 5 0 6 -10 0 -18 5 -18 10 0 5 8 12 18 14 13 4 12 5 -4 6
-18 1 -23 -6 -26 -34z"/>
<path d="M610 115 c0 -34 13 -47 23 -22 4 10 6 10 6 0 2 -29 18 -10 19 22 1
31 -1 35 -23 35 -22 0 -25 -4 -25 -35z m30 15 c0 -5 -4 -10 -10 -10 -5 0 -10
5 -10 10 0 6 5 10 10 10 6 0 10 -4 10 -10z"/>
</g>
</svg>
